<mxfile host="65bd71144e">
    <diagram id="P_QRMhUGNyoRS0ovx_TF" name="Page-1">
        <mxGraphModel dx="1163" dy="689" grid="1" gridSize="10" guides="1" tooltips="1" connect="1" arrows="1" fold="1" page="1" pageScale="1" pageWidth="850" pageHeight="1100" math="0" shadow="0">
            <root>
                <mxCell id="0"/>
                <mxCell id="1" parent="0"/>
                <mxCell id="20" value="BAMMBAMM" style="shape=actor;whiteSpace=wrap;html=1;fillColor=#d5e8d4;strokeColor=#82b366;fontSize=17;" vertex="1" parent="1">
                    <mxGeometry x="340" y="890" width="40" height="60" as="geometry"/>
                </mxCell>
                <mxCell id="21" value="BETTY" style="shape=actor;whiteSpace=wrap;html=1;fillColor=#f8cecc;strokeColor=#b85450;fontSize=17;labelBackgroundColor=#d1fcff;" vertex="1" parent="1">
                    <mxGeometry x="470" y="750" width="40" height="60" as="geometry"/>
                </mxCell>
                <mxCell id="22" value="BARNEY" style="shape=actor;whiteSpace=wrap;html=1;fillColor=#f8cecc;strokeColor=#b85450;fontSize=17;labelBackgroundColor=#d1fcff;" vertex="1" parent="1">
                    <mxGeometry x="260" y="760" width="40" height="60" as="geometry"/>
                </mxCell>
                <mxCell id="23" value="PEBBLES" style="shape=actor;whiteSpace=wrap;html=1;fillColor=#f8cecc;strokeColor=#b85450;fontSize=17;labelBackgroundColor=#d1fcff;" vertex="1" parent="1">
                    <mxGeometry x="206.5" y="1010" width="40" height="60" as="geometry"/>
                </mxCell>
                <mxCell id="24" value="ROXY" style="shape=actor;whiteSpace=wrap;html=1;fillColor=#f8cecc;strokeColor=#b85450;fontSize=17;labelBackgroundColor=#d1fcff;" vertex="1" parent="1">
                    <mxGeometry x="370" y="1070" width="40" height="60" as="geometry"/>
                </mxCell>
                <mxCell id="25" value="CHIP" style="shape=actor;whiteSpace=wrap;html=1;fillColor=#f8cecc;strokeColor=#b85450;fontSize=17;labelBackgroundColor=#d1fcff;" vertex="1" parent="1">
                    <mxGeometry x="503" y="1030" width="40" height="60" as="geometry"/>
                </mxCell>
                <mxCell id="26" value="" style="endArrow=classic;html=1;fontSize=17;fontColor=#5045e8;fillColor=#e1d5e7;strokeColor=#9673a6;strokeWidth=7;entryX=0.25;entryY=0.2;entryDx=0;entryDy=0;exitX=0.5;exitY=1;exitDx=0;exitDy=0;entryPerimeter=0;" edge="1" parent="1" source="20" target="25">
                    <mxGeometry width="50" height="50" relative="1" as="geometry">
                        <mxPoint x="400" y="1010" as="sourcePoint"/>
                        <mxPoint x="430" y="880" as="targetPoint"/>
                    </mxGeometry>
                </mxCell>
                <mxCell id="31" value="FATHER_OF" style="edgeLabel;html=1;align=center;verticalAlign=middle;resizable=0;points=[];fontSize=17;fontColor=#5045e8;" vertex="1" connectable="0" parent="26">
                    <mxGeometry x="-0.284" y="-1" relative="1" as="geometry">
                        <mxPoint x="20" as="offset"/>
                    </mxGeometry>
                </mxCell>
                <mxCell id="27" value="" style="endArrow=classic;html=1;fontSize=17;fontColor=#5045e8;fillColor=#e1d5e7;strokeColor=#9673a6;strokeWidth=7;entryX=0.5;entryY=0;entryDx=0;entryDy=0;exitX=0.5;exitY=1;exitDx=0;exitDy=0;" edge="1" parent="1" source="20" target="24">
                    <mxGeometry width="50" height="50" relative="1" as="geometry">
                        <mxPoint x="390" y="945" as="sourcePoint"/>
                        <mxPoint x="529.2" y="947.02" as="targetPoint"/>
                    </mxGeometry>
                </mxCell>
                <mxCell id="32" value="FATHER_OF" style="edgeLabel;html=1;align=center;verticalAlign=middle;resizable=0;points=[];fontSize=17;fontColor=#5045e8;" vertex="1" connectable="0" parent="27">
                    <mxGeometry x="0.418" y="1" relative="1" as="geometry">
                        <mxPoint x="-8" y="-1" as="offset"/>
                    </mxGeometry>
                </mxCell>
                <mxCell id="28" value="HUSBAND_OF" style="endArrow=classic;html=1;fontSize=17;fontColor=#5045e8;fillColor=#ffe6cc;strokeColor=#d79b00;strokeWidth=7;entryX=0.75;entryY=0.25;entryDx=0;entryDy=0;exitX=0;exitY=0.75;exitDx=0;exitDy=0;entryPerimeter=0;" edge="1" parent="1" source="20" target="23">
                    <mxGeometry width="50" height="50" relative="1" as="geometry">
                        <mxPoint x="390" y="945" as="sourcePoint"/>
                        <mxPoint x="500" y="1045" as="targetPoint"/>
                    </mxGeometry>
                </mxCell>
                <mxCell id="29" value="FATHER_OF" style="endArrow=classic;html=1;fontSize=17;fontColor=#5045e8;fillColor=#e1d5e7;strokeColor=#9673a6;strokeWidth=7;entryX=0.25;entryY=0.2;entryDx=0;entryDy=0;exitX=0.5;exitY=1;exitDx=0;exitDy=0;entryPerimeter=0;" edge="1" parent="1" source="22" target="20">
                    <mxGeometry width="50" height="50" relative="1" as="geometry">
                        <mxPoint x="350" y="945" as="sourcePoint"/>
                        <mxPoint x="206.5" y="1015" as="targetPoint"/>
                    </mxGeometry>
                </mxCell>
                <mxCell id="30" value="" style="endArrow=classic;html=1;fontSize=17;fontColor=#5045e8;fillColor=#f8cecc;strokeColor=#b85450;strokeWidth=7;entryX=0.82;entryY=0.124;entryDx=0;entryDy=0;exitX=0.5;exitY=1;exitDx=0;exitDy=0;entryPerimeter=0;" edge="1" parent="1" source="21" target="20">
                    <mxGeometry width="50" height="50" relative="1" as="geometry">
                        <mxPoint x="230" y="810" as="sourcePoint"/>
                        <mxPoint x="360" y="912" as="targetPoint"/>
                    </mxGeometry>
                </mxCell>
                <mxCell id="33" value="MOTHER_OF" style="edgeLabel;html=1;align=center;verticalAlign=middle;resizable=0;points=[];fontSize=17;fontColor=#5045e8;" vertex="1" connectable="0" parent="30">
                    <mxGeometry x="-0.1457" y="1" relative="1" as="geometry">
                        <mxPoint x="-1" as="offset"/>
                    </mxGeometry>
                </mxCell>
            </root>
        </mxGraphModel>
    </diagram>
</mxfile>